<svg width="226" height="359" viewBox="0 0 226 359" fill="none" xmlns="http://www.w3.org/2000/svg">
<path d="M2 2C5.91105 12.5391 4.93328 9.76562 8.35545 17.5312C14.222 28.0703 18.4168 38.1667 26.0413 46.2168C44.5876 65.7982 70.8322 74.4948 95.3366 78.3536C113.298 81.182 135.067 83.461 139.688 58.3838C142.024 45.7071 136.034 26.0627 122.262 35.4384C106.722 46.0175 107.218 76.8702 108.858 94.422C111.117 118.61 122.334 137.434 138.289 153.273C164.818 179.61 202.487 191.862 218.191 230.045C230.884 260.905 221.612 291.723 201.64 315.148C181.275 339.033 166.397 345.366 139.688 357" stroke="#B7B7B7" stroke-width="3" stroke-linecap="round" stroke-dasharray="18 18"/>
</svg>
