<svg width="298" height="256" viewBox="0 0 298 256" fill="none" xmlns="http://www.w3.org/2000/svg">
<path d="M2.15587 0.50812C1.33193 0.422037 0.594204 1.02019 0.50812 1.84413C0.422037 2.66807 1.02019 3.4058 1.84413 3.49188L2.15587 0.50812ZM85.1789 13.5521L84.9023 15.0263L85.1789 13.5521ZM153.065 33.4059L153.698 32.046L153.065 33.4059ZM214.834 73.9693L213.681 74.929L214.834 73.9693ZM233.294 117.157L234.791 117.255L233.294 117.157ZM188.47 153.727L188.071 152.281L188.47 153.727ZM104.884 156.522L105.199 155.056L104.884 156.522ZM80.415 137.239L81.8808 137.558L80.415 137.239ZM99.9038 126.856L99.7934 125.36L99.9038 126.856ZM164.542 133.36L164.082 134.787L164.542 133.36ZM225.931 170.215L226.972 169.134L225.931 170.215ZM281.5 247.5C281.5 251.918 285.082 255.5 289.5 255.5C293.918 255.5 297.5 251.918 297.5 247.5C297.5 243.082 293.918 239.5 289.5 239.5C285.082 239.5 281.5 243.082 281.5 247.5ZM12.2922 4.59476C13.1159 4.68292 13.8552 4.08662 13.9433 3.2629C14.0315 2.43918 13.4352 1.69995 12.6114 1.6118L12.2922 4.59476ZM33.4962 3.97161C32.6738 3.87175 31.9261 4.45748 31.8263 5.27986C31.7264 6.10225 32.3121 6.84988 33.1345 6.94974L33.4962 3.97161ZM53.9025 9.74619C54.7218 9.86862 55.4852 9.30368 55.6077 8.48435C55.7301 7.66503 55.1652 6.90157 54.3459 6.77913L53.9025 9.74619ZM75.1043 10.186C74.2886 10.0413 73.51 10.5852 73.3653 11.4009C73.2205 12.2166 73.7644 12.9951 74.5801 13.1399L75.1043 10.186ZM93.5864 16.7104C94.3986 16.8738 95.1894 16.3479 95.3529 15.5358C95.5163 14.7236 94.9904 13.9328 94.1782 13.7694L93.5864 16.7104ZM111.551 17.6202C110.746 17.4222 109.933 17.9137 109.735 18.7181C109.537 19.5225 110.029 20.3352 110.833 20.5332L111.551 17.6202ZM127.816 25.2696C128.606 25.5192 129.449 25.0811 129.699 24.2912C129.948 23.5013 129.51 22.6586 128.72 22.409L127.816 25.2696ZM145.511 28.4669C144.745 28.1526 143.869 28.5193 143.554 29.2858C143.24 30.0523 143.607 30.9284 144.373 31.2427L145.511 28.4669ZM160.852 38.717C161.601 39.073 162.495 38.7551 162.851 38.007C163.207 37.2589 162.889 36.364 162.141 36.008L160.852 38.717ZM178.845 44.4373C178.117 44.0411 177.206 44.3097 176.81 45.0372C176.414 45.7648 176.683 46.6757 177.41 47.0719L178.845 44.4373ZM193.182 56.6708C193.864 57.1412 194.799 56.9698 195.269 56.2879C195.739 55.606 195.568 54.6719 194.886 54.2014L193.182 56.6708ZM209.535 66.0748C208.94 65.4986 207.99 65.5141 207.414 66.1094C206.838 66.7046 206.853 67.6543 207.448 68.2304L209.535 66.0748ZM220.742 84.4207C221.198 85.1122 222.129 85.303 222.82 84.8468C223.512 84.3906 223.702 83.4602 223.246 82.7687L220.742 84.4207ZM233.533 104.897C233.331 104.094 232.516 103.606 231.712 103.808C230.909 104.01 230.421 104.825 230.623 105.629L233.533 104.897ZM230.329 124.192C230.049 124.972 230.454 125.831 231.233 126.111C232.013 126.391 232.872 125.986 233.152 125.206L230.329 124.192ZM224.031 138.37C224.644 137.813 224.689 136.864 224.132 136.251C223.575 135.638 222.626 135.593 222.013 136.15L224.031 138.37ZM209.52 144.43C208.779 144.8 208.478 145.701 208.848 146.442C209.218 147.183 210.119 147.484 210.86 147.114L209.52 144.43ZM196.328 152.946C197.116 152.689 197.547 151.843 197.291 151.055C197.035 150.267 196.189 149.836 195.401 150.093L196.328 152.946ZM177.906 154.76C177.096 154.933 176.579 155.73 176.752 156.54C176.924 157.35 177.721 157.867 178.531 157.695L177.906 154.76ZM157.507 160.909C158.332 160.832 158.938 160.1 158.86 159.275C158.783 158.451 158.051 157.845 157.226 157.923L157.507 160.909ZM136.321 158.667C135.493 158.648 134.806 159.304 134.786 160.132C134.767 160.96 135.423 161.647 136.251 161.667L136.321 158.667ZM115.049 159.88C115.869 160.001 116.631 159.435 116.752 158.615C116.872 157.795 116.306 157.033 115.486 156.912L115.049 159.88ZM96.8758 152.991C96.0831 152.751 95.2455 153.199 95.005 153.991C94.7645 154.784 95.2121 155.622 96.0049 155.862L96.8758 152.991ZM80.5616 146.409C81.0137 147.103 81.943 147.3 82.6372 146.848C83.3314 146.396 83.5276 145.466 83.0756 144.772L80.5616 146.409ZM84.2267 133.058C84.8028 132.463 84.7872 131.513 84.1919 130.937C83.5966 130.361 82.6469 130.376 82.0709 130.972L84.2267 133.058ZM93.7412 125.968C92.9218 126.09 92.3564 126.853 92.4784 127.672C92.6004 128.491 93.3635 129.057 94.1829 128.935L93.7412 125.968ZM108.115 127.905C108.943 127.875 109.59 127.179 109.56 126.351C109.53 125.523 108.835 124.877 108.007 124.907L108.115 127.905ZM124.466 124.97C123.638 124.932 122.936 125.573 122.899 126.4C122.861 127.228 123.501 127.929 124.329 127.967L124.466 124.97ZM140.454 129.448C141.275 129.563 142.033 128.992 142.149 128.171C142.264 127.351 141.693 126.592 140.872 126.477L140.454 129.448ZM157.062 129.646C156.259 129.442 155.443 129.926 155.238 130.729C155.033 131.532 155.518 132.348 156.321 132.553L157.062 129.646ZM172.507 137.775C173.279 138.075 174.148 137.691 174.448 136.919C174.747 136.146 174.364 135.277 173.591 134.978L172.507 137.775ZM190.17 142.53C189.437 142.144 188.53 142.425 188.144 143.158C187.758 143.891 188.039 144.798 188.772 145.184L190.17 142.53ZM204.091 154.397C204.776 154.863 205.709 154.686 206.175 154.002C206.642 153.317 206.465 152.384 205.78 151.918L204.091 154.397ZM220.234 163.002C219.606 162.461 218.659 162.533 218.119 163.161C217.578 163.789 217.65 164.736 218.278 165.276L220.234 163.002ZM230.729 177.165C231.302 177.764 232.251 177.785 232.85 177.213C233.449 176.64 233.47 175.691 232.898 175.092L230.729 177.165ZM244.12 187.564C243.582 186.934 242.635 186.86 242.005 187.398C241.375 187.936 241.301 188.883 241.839 189.513L244.12 187.564ZM252.421 202.356C252.938 203.004 253.882 203.109 254.529 202.592C255.176 202.075 255.282 201.131 254.765 200.484L252.421 202.356ZM265.069 213.65C264.564 212.993 263.622 212.871 262.965 213.377C262.309 213.882 262.187 214.824 262.693 215.481L265.069 213.65ZM272.842 228.731C273.345 229.389 274.287 229.514 274.945 229.01C275.603 228.506 275.728 227.565 275.224 226.907L272.842 228.731ZM285.434 240.078C284.92 239.429 283.977 239.319 283.327 239.833C282.678 240.348 282.568 241.291 283.083 241.941L285.434 240.078ZM1.84413 3.49188C5.49796 3.87362 8.96808 4.23901 12.2922 4.59476L12.6114 1.6118C9.28391 1.25568 5.81109 0.890009 2.15587 0.50812L1.84413 3.49188ZM33.1345 6.94974C40.2423 7.81283 46.9718 8.71048 53.9025 9.74619L54.3459 6.77913C47.384 5.73877 40.627 4.8375 33.4962 3.97161L33.1345 6.94974ZM74.5801 13.1399C77.8735 13.7243 81.2999 14.3505 84.9023 15.0263L85.4555 12.0778C81.8443 11.4003 78.4082 10.7723 75.1043 10.186L74.5801 13.1399ZM84.9023 15.0263C87.815 15.5728 90.7092 16.1315 93.5864 16.7104L94.1782 13.7694C91.2856 13.1873 88.3783 12.6261 85.4555 12.0778L84.9023 15.0263ZM110.833 20.5332C116.552 21.9413 122.209 23.4982 127.816 25.2696L128.72 22.409C123.042 20.6151 117.321 19.0412 111.551 17.6202L110.833 20.5332ZM144.373 31.2427C147.068 32.3477 149.754 33.5195 152.432 34.7658L153.698 32.046C150.977 30.7794 148.248 29.5889 145.511 28.4669L144.373 31.2427ZM152.432 34.7658C155.203 36.0554 158.016 37.3676 160.852 38.717L162.141 36.008C159.293 34.6526 156.469 33.3357 153.698 32.046L152.432 34.7658ZM177.41 47.0719C182.824 50.0203 188.137 53.1901 193.182 56.6708L194.886 54.2014C189.733 50.6465 184.326 47.4222 178.845 44.4373L177.41 47.0719ZM207.448 68.2304C209.646 70.3579 211.731 72.587 213.681 74.929L215.986 73.0095C213.963 70.5788 211.804 68.2713 209.535 66.0748L207.448 68.2304ZM213.681 74.929C216.034 77.7555 218.46 80.9605 220.742 84.4207L223.246 82.7687C220.896 79.206 218.403 75.912 215.986 73.0095L213.681 74.929ZM230.623 105.629C231.592 109.482 232.041 113.326 231.797 117.059L234.791 117.255C235.059 113.151 234.561 108.99 233.533 104.897L230.623 105.629ZM231.797 117.059C231.63 119.616 231.121 121.987 230.329 124.192L233.152 125.206C234.039 122.738 234.606 120.091 234.791 117.255L231.797 117.059ZM222.013 136.15C218.418 139.417 214.1 142.143 209.52 144.43L210.86 147.114C215.606 144.745 220.175 141.874 224.031 138.37L222.013 136.15ZM195.401 150.093C192.843 150.924 190.371 151.647 188.071 152.281L188.868 155.173C191.199 154.53 193.717 153.795 196.328 152.946L195.401 150.093ZM188.071 152.281C184.719 153.205 181.328 154.032 177.906 154.76L178.531 157.695C182.01 156.954 185.459 156.113 188.868 155.173L188.071 152.281ZM157.226 157.923C150.281 158.576 143.288 158.829 136.321 158.667L136.251 161.667C143.338 161.831 150.447 161.574 157.507 160.909L157.226 157.923ZM115.486 156.912C112.029 156.403 108.597 155.785 105.199 155.056L104.57 157.989C108.033 158.732 111.529 159.362 115.049 159.88L115.486 156.912ZM105.199 155.056C102.983 154.58 100 153.939 96.8758 152.991L96.0049 155.862C99.2633 156.851 102.358 157.514 104.57 157.989L105.199 155.056ZM83.0756 144.772C81.8057 142.822 81.2452 140.482 81.8808 137.558L78.9492 136.92C78.1433 140.629 78.8545 143.788 80.5616 146.409L83.0756 144.772ZM81.8808 137.558C82.2965 135.644 83.1296 134.192 84.2267 133.058L82.0709 130.972C80.5826 132.51 79.4827 134.465 78.9492 136.92L81.8808 137.558ZM94.1829 128.935C96.1894 128.636 98.1844 128.487 100.014 128.352L99.7934 125.36C97.9752 125.494 95.8736 125.65 93.7412 125.968L94.1829 128.935ZM100.014 128.352C102.699 128.153 105.402 128.003 108.115 127.905L108.007 124.907C105.255 125.006 102.515 125.159 99.7934 125.36L100.014 128.352ZM124.329 127.967C129.725 128.214 135.115 128.696 140.454 129.448L140.872 126.477C135.433 125.712 129.948 125.221 124.466 124.97L124.329 127.967ZM156.321 132.553C158.935 133.22 161.524 133.963 164.082 134.787L165.002 131.932C162.383 131.088 159.734 130.328 157.062 129.646L156.321 132.553ZM164.082 134.787C166.917 135.701 169.727 136.697 172.507 137.775L173.591 134.978C170.757 133.879 167.893 132.863 165.002 131.932L164.082 134.787ZM188.772 145.184C194.035 147.956 199.151 151.032 204.091 154.397L205.78 151.918C200.747 148.489 195.533 145.354 190.17 142.53L188.772 145.184ZM218.278 165.276C220.534 167.216 222.739 169.223 224.891 171.295L226.972 169.134C224.779 167.023 222.532 164.978 220.234 163.002L218.278 165.276ZM224.891 171.295C226.831 173.163 228.779 175.125 230.729 177.165L232.898 175.092C230.922 173.026 228.945 171.034 226.972 169.134L224.891 171.295ZM241.839 189.513C245.395 193.673 248.931 197.987 252.421 202.356L254.765 200.484C251.26 196.096 247.703 191.755 244.12 187.564L241.839 189.513ZM262.693 215.481C266.163 219.985 269.553 224.434 272.842 228.731L275.224 226.907C271.941 222.618 268.544 218.159 265.069 213.65L262.693 215.481ZM283.083 241.941C284.885 244.217 286.641 246.397 288.344 248.456L290.656 246.544C288.97 244.505 287.228 242.342 285.434 240.078L283.083 241.941Z" fill="#B7B7B7"/>
</svg>
