<svg width="561" height="241" viewBox="0 0 561 241" fill="none" xmlns="http://www.w3.org/2000/svg">
<rect x="244" y="1" width="316" height="101" rx="7" stroke="#262626" stroke-width="2"/>
<path d="M289.885 25.7812V35.2539C289.885 36.3411 289.647 37.2526 289.172 37.9883C288.703 38.7174 288.065 39.2676 287.258 39.6387C286.451 40.0098 285.549 40.1953 284.553 40.1953C283.531 40.1953 282.616 40.0098 281.809 39.6387C281.008 39.2676 280.376 38.7174 279.914 37.9883C279.458 37.2526 279.23 36.3411 279.23 35.2539V25.7812H281.74V35.2539C281.74 35.9245 281.854 36.4746 282.082 36.9043C282.31 37.334 282.635 37.653 283.059 37.8613C283.482 38.0697 283.98 38.1738 284.553 38.1738C285.139 38.1738 285.64 38.0697 286.057 37.8613C286.473 37.653 286.796 37.334 287.023 36.9043C287.251 36.4746 287.365 35.9245 287.365 35.2539V25.7812H289.885ZM298.986 37.1191C298.986 36.8978 298.927 36.696 298.81 36.5137C298.699 36.3314 298.481 36.1621 298.155 36.0059C297.83 35.8496 297.351 35.7064 296.72 35.5762C295.971 35.4199 295.31 35.2116 294.738 34.9512C294.171 34.6908 293.728 34.3555 293.409 33.9453C293.097 33.5352 292.941 33.0339 292.941 32.4414C292.941 31.8685 293.103 31.3411 293.429 30.8594C293.761 30.3711 294.233 29.9805 294.845 29.6875C295.463 29.388 296.193 29.2383 297.032 29.2383C297.918 29.2383 298.68 29.388 299.318 29.6875C299.956 29.9805 300.444 30.3809 300.782 30.8887C301.127 31.39 301.3 31.9596 301.3 32.5977H298.878C298.878 32.181 298.722 31.8164 298.409 31.5039C298.103 31.1849 297.641 31.0254 297.023 31.0254C296.639 31.0254 296.316 31.0872 296.056 31.2109C295.802 31.3346 295.61 31.4941 295.48 31.6895C295.356 31.8848 295.294 32.0996 295.294 32.334C295.294 32.5618 295.356 32.7604 295.48 32.9297C295.61 33.099 295.828 33.2487 296.134 33.3789C296.446 33.5091 296.883 33.6328 297.443 33.75C298.25 33.9193 298.946 34.1341 299.532 34.3945C300.118 34.6484 300.568 34.987 300.88 35.4102C301.199 35.8268 301.359 36.3574 301.359 37.002C301.359 37.6204 301.18 38.1706 300.821 38.6523C300.47 39.1341 299.972 39.5117 299.327 39.7852C298.689 40.0586 297.934 40.1953 297.062 40.1953C296.092 40.1953 295.275 40.0228 294.611 39.6777C293.946 39.3327 293.442 38.8932 293.097 38.3594C292.758 37.819 292.589 37.2591 292.589 36.6797H294.923C294.949 37.0964 295.066 37.4316 295.275 37.6855C295.489 37.9395 295.756 38.125 296.075 38.2422C296.401 38.3529 296.739 38.4082 297.091 38.4082C297.508 38.4082 297.853 38.3529 298.126 38.2422C298.406 38.1315 298.618 37.9818 298.761 37.793C298.911 37.5977 298.986 37.373 298.986 37.1191ZM308.877 40.1953C307.829 40.1953 306.924 39.9707 306.163 39.5215C305.401 39.0658 304.815 38.4538 304.405 37.6855C303.995 36.9108 303.789 36.0449 303.789 35.0879V34.6875C303.789 33.5872 303.998 32.6302 304.414 31.8164C304.831 30.9961 305.401 30.3613 306.123 29.9121C306.853 29.4629 307.676 29.2383 308.594 29.2383C309.61 29.2383 310.453 29.4596 311.123 29.9023C311.794 30.3385 312.295 30.9473 312.627 31.7285C312.959 32.5033 313.125 33.4017 313.125 34.4238V35.4688H304.952V33.7207H310.733V33.5352C310.72 33.125 310.642 32.7409 310.498 32.3828C310.355 32.0247 310.127 31.735 309.815 31.5137C309.509 31.2923 309.099 31.1816 308.584 31.1816C308.07 31.1816 307.637 31.3281 307.286 31.6211C306.934 31.9076 306.667 32.3145 306.485 32.8418C306.302 33.3626 306.211 33.9779 306.211 34.6875V35.0879C306.211 35.6868 306.322 36.224 306.543 36.6992C306.765 37.1745 307.087 37.5521 307.51 37.832C307.933 38.1055 308.438 38.2422 309.024 38.2422C309.59 38.2422 310.092 38.1315 310.528 37.9102C310.97 37.6888 311.351 37.3698 311.67 36.9531L312.94 38.2227C312.608 38.724 312.107 39.1797 311.436 39.5898C310.772 39.9935 309.919 40.1953 308.877 40.1953ZM318.164 40H315.742V29.4336H318.046L318.164 31.5039V40ZM321.347 31.6602C321.198 31.6341 321.038 31.6146 320.869 31.6016C320.706 31.5885 320.543 31.582 320.38 31.582C319.847 31.582 319.401 31.6797 319.043 31.875C318.691 32.0638 318.424 32.3372 318.242 32.6953C318.06 33.0469 317.952 33.4635 317.92 33.9453L317.363 33.9551C317.363 33.0632 317.48 32.2624 317.714 31.5527C317.949 30.8431 318.3 30.2799 318.769 29.8633C319.238 29.4466 319.824 29.2383 320.527 29.2383C320.664 29.2383 320.817 29.2513 320.986 29.2773C321.155 29.3034 321.282 29.3327 321.367 29.3652L321.347 31.6602ZM338.963 40H331.453V37.9785H338.963V40ZM332.156 40H329.637V25.7812H332.156V40ZM337.977 33.6719H331.453V31.6797H337.977V33.6719ZM338.914 27.8125H331.453V25.7812H338.914V27.8125ZM345.359 32.8613L347.351 29.4336H350.007L346.823 34.6191L350.124 40H347.478L345.368 36.416L343.279 40H340.603L343.913 34.6191L340.73 29.4336H343.396L345.359 32.8613ZM354.821 44.0625H352.399V29.4336H354.635L354.821 31.4648V44.0625ZM361.676 34.8145C361.676 35.8431 361.517 36.7643 361.198 37.5781C360.885 38.3854 360.423 39.0234 359.811 39.4922C359.205 39.9609 358.463 40.1953 357.584 40.1953C356.699 40.1953 355.963 39.9805 355.377 39.5508C354.798 39.1146 354.345 38.5156 354.02 37.7539C353.694 36.9922 353.47 36.123 353.346 35.1465V34.4531C353.47 33.4115 353.694 32.5033 354.02 31.7285C354.345 30.9473 354.798 30.3385 355.377 29.9023C355.957 29.4596 356.683 29.2383 357.555 29.2383C358.447 29.2383 359.199 29.4629 359.811 29.9121C360.423 30.3613 360.885 30.9896 361.198 31.7969C361.517 32.6042 361.676 33.5417 361.676 34.6094V34.8145ZM359.254 34.6094C359.254 33.9779 359.173 33.4049 359.01 32.8906C358.854 32.3763 358.6 31.9694 358.248 31.6699C357.903 31.3704 357.451 31.2207 356.891 31.2207C356.487 31.2207 356.139 31.2891 355.846 31.4258C355.553 31.556 355.306 31.7415 355.104 31.9824C354.909 32.2233 354.756 32.5098 354.645 32.8418C354.534 33.1673 354.456 33.5254 354.411 33.916V35.6836C354.489 36.1523 354.619 36.582 354.801 36.9727C354.983 37.3633 355.244 37.6758 355.582 37.9102C355.927 38.138 356.37 38.252 356.911 38.252C357.47 38.252 357.923 38.0957 358.268 37.7832C358.613 37.4642 358.864 37.0475 359.02 36.5332C359.176 36.0124 359.254 35.4395 359.254 34.8145V34.6094ZM369.127 40.1953C368.078 40.1953 367.173 39.9707 366.412 39.5215C365.65 39.0658 365.064 38.4538 364.654 37.6855C364.244 36.9108 364.039 36.0449 364.039 35.0879V34.6875C364.039 33.5872 364.247 32.6302 364.664 31.8164C365.08 30.9961 365.65 30.3613 366.373 29.9121C367.102 29.4629 367.925 29.2383 368.843 29.2383C369.859 29.2383 370.702 29.4596 371.373 29.9023C372.043 30.3385 372.545 30.9473 372.877 31.7285C373.209 32.5033 373.375 33.4017 373.375 34.4238V35.4688H365.201V33.7207H370.982V33.5352C370.969 33.125 370.891 32.7409 370.748 32.3828C370.604 32.0247 370.377 31.735 370.064 31.5137C369.758 31.2923 369.348 31.1816 368.834 31.1816C368.319 31.1816 367.886 31.3281 367.535 31.6211C367.183 31.9076 366.916 32.3145 366.734 32.8418C366.552 33.3626 366.461 33.9779 366.461 34.6875V35.0879C366.461 35.6868 366.571 36.224 366.793 36.6992C367.014 37.1745 367.336 37.5521 367.759 37.832C368.183 38.1055 368.687 38.2422 369.273 38.2422C369.839 38.2422 370.341 38.1315 370.777 37.9102C371.22 37.6888 371.601 37.3698 371.92 36.9531L373.189 38.2227C372.857 38.724 372.356 39.1797 371.685 39.5898C371.021 39.9935 370.168 40.1953 369.127 40.1953ZM378.413 40H375.991V29.4336H378.296L378.413 31.5039V40ZM381.596 31.6602C381.447 31.6341 381.287 31.6146 381.118 31.6016C380.955 31.5885 380.792 31.582 380.63 31.582C380.096 31.582 379.65 31.6797 379.292 31.875C378.94 32.0638 378.673 32.3372 378.491 32.6953C378.309 33.0469 378.201 33.4635 378.169 33.9453L377.612 33.9551C377.612 33.0632 377.729 32.2624 377.964 31.5527C378.198 30.8431 378.55 30.2799 379.018 29.8633C379.487 29.4466 380.073 29.2383 380.776 29.2383C380.913 29.2383 381.066 29.2513 381.235 29.2773C381.404 29.3034 381.531 29.3327 381.616 29.3652L381.596 31.6602ZM386.459 40H384.037V29.4336H386.459V40ZM383.881 26.6699C383.881 26.2988 384.001 25.9928 384.242 25.752C384.483 25.5046 384.818 25.3809 385.248 25.3809C385.678 25.3809 386.016 25.5046 386.264 25.752C386.511 25.9928 386.635 26.2988 386.635 26.6699C386.635 27.0345 386.511 27.3405 386.264 27.5879C386.016 27.8288 385.678 27.9492 385.248 27.9492C384.818 27.9492 384.483 27.8288 384.242 27.5879C384.001 27.3405 383.881 27.0345 383.881 26.6699ZM394.495 40.1953C393.447 40.1953 392.542 39.9707 391.78 39.5215C391.019 39.0658 390.433 38.4538 390.023 37.6855C389.613 36.9108 389.407 36.0449 389.407 35.0879V34.6875C389.407 33.5872 389.616 32.6302 390.032 31.8164C390.449 30.9961 391.019 30.3613 391.741 29.9121C392.471 29.4629 393.294 29.2383 394.212 29.2383C395.228 29.2383 396.071 29.4596 396.741 29.9023C397.412 30.3385 397.913 30.9473 398.245 31.7285C398.577 32.5033 398.743 33.4017 398.743 34.4238V35.4688H390.57V33.7207H396.351V33.5352C396.338 33.125 396.26 32.7409 396.116 32.3828C395.973 32.0247 395.745 31.735 395.433 31.5137C395.127 31.2923 394.717 31.1816 394.202 31.1816C393.688 31.1816 393.255 31.3281 392.904 31.6211C392.552 31.9076 392.285 32.3145 392.103 32.8418C391.92 33.3626 391.829 33.9779 391.829 34.6875V35.0879C391.829 35.6868 391.94 36.224 392.161 36.6992C392.383 37.1745 392.705 37.5521 393.128 37.832C393.551 38.1055 394.056 38.2422 394.642 38.2422C395.208 38.2422 395.71 38.1315 396.146 37.9102C396.588 37.6888 396.969 37.3698 397.288 36.9531L398.558 38.2227C398.226 38.724 397.724 39.1797 397.054 39.5898C396.39 39.9935 395.537 40.1953 394.495 40.1953ZM403.752 40H401.33V29.4336H403.606L403.752 31.6895V40ZM402.541 34.3457C402.548 33.3236 402.727 32.4316 403.079 31.6699C403.43 30.9017 403.922 30.306 404.553 29.8828C405.185 29.4531 405.92 29.2383 406.76 29.2383C407.444 29.2383 408.036 29.3685 408.537 29.6289C409.039 29.8828 409.429 30.2995 409.709 30.8789C409.989 31.4518 410.129 32.2233 410.129 33.1934V40H407.698V33.1738C407.698 32.6855 407.626 32.2982 407.483 32.0117C407.346 31.7253 407.138 31.5234 406.858 31.4062C406.584 31.2826 406.249 31.2207 405.852 31.2207C405.448 31.2207 405.09 31.3021 404.778 31.4648C404.472 31.6211 404.208 31.8424 403.987 32.1289C403.772 32.4154 403.606 32.7474 403.489 33.125C403.378 33.5026 403.323 33.9062 403.323 34.3359L402.541 34.3457ZM417.648 38.252C418.026 38.252 418.367 38.1771 418.673 38.0273C418.979 37.8711 419.224 37.6595 419.406 37.3926C419.588 37.1257 419.689 36.8197 419.709 36.4746H421.994C421.974 37.1712 421.769 37.7995 421.379 38.3594C420.988 38.9193 420.47 39.3652 419.826 39.6973C419.181 40.0293 418.462 40.1953 417.668 40.1953C416.593 40.1953 415.698 39.9577 414.982 39.4824C414.272 39.0007 413.742 38.3594 413.39 37.5586C413.039 36.7513 412.863 35.8594 412.863 34.8828V34.5508C412.863 33.5742 413.039 32.6855 413.39 31.8848C413.742 31.0775 414.272 30.4362 414.982 29.9609C415.698 29.4792 416.593 29.2383 417.668 29.2383C418.52 29.2383 419.266 29.4076 419.904 29.7461C420.548 30.0781 421.053 30.5436 421.418 31.1426C421.782 31.7415 421.974 32.4414 421.994 33.2422H419.709C419.689 32.8646 419.595 32.5195 419.425 32.207C419.263 31.8945 419.028 31.6471 418.722 31.4648C418.423 31.276 418.061 31.1816 417.638 31.1816C417.013 31.1816 416.528 31.3444 416.183 31.6699C415.845 31.9954 415.61 32.4154 415.48 32.9297C415.35 33.444 415.285 33.9844 415.285 34.5508V34.8828C415.285 35.4557 415.347 35.9993 415.47 36.5137C415.601 37.028 415.838 37.4479 416.183 37.7734C416.528 38.0924 417.017 38.252 417.648 38.252ZM429.259 40.1953C428.21 40.1953 427.305 39.9707 426.544 39.5215C425.782 39.0658 425.196 38.4538 424.786 37.6855C424.376 36.9108 424.171 36.0449 424.171 35.0879V34.6875C424.171 33.5872 424.379 32.6302 424.796 31.8164C425.212 30.9961 425.782 30.3613 426.505 29.9121C427.234 29.4629 428.057 29.2383 428.975 29.2383C429.991 29.2383 430.834 29.4596 431.505 29.9023C432.175 30.3385 432.677 30.9473 433.009 31.7285C433.341 32.5033 433.507 33.4017 433.507 34.4238V35.4688H425.333V33.7207H431.114V33.5352C431.101 33.125 431.023 32.7409 430.88 32.3828C430.736 32.0247 430.509 31.735 430.196 31.5137C429.89 31.2923 429.48 31.1816 428.966 31.1816C428.451 31.1816 428.018 31.3281 427.667 31.6211C427.315 31.9076 427.048 32.3145 426.866 32.8418C426.684 33.3626 426.593 33.9779 426.593 34.6875V35.0879C426.593 35.6868 426.703 36.224 426.925 36.6992C427.146 37.1745 427.468 37.5521 427.891 37.832C428.315 38.1055 428.819 38.2422 429.405 38.2422C429.971 38.2422 430.473 38.1315 430.909 37.9102C431.352 37.6888 431.733 37.3698 432.052 36.9531L433.321 38.2227C432.989 38.724 432.488 39.1797 431.817 39.5898C431.153 39.9935 430.3 40.1953 429.259 40.1953ZM443.241 40L443.261 37.9785H446.269C447.141 37.9785 447.87 37.7897 448.456 37.4121C449.042 37.0345 449.485 36.4941 449.784 35.791C450.084 35.0814 450.234 34.235 450.234 33.252V32.5098C450.234 31.5007 450.084 30.6478 449.784 29.9512C449.491 29.2546 449.055 28.724 448.476 28.3594C447.896 27.9948 447.19 27.8125 446.357 27.8125H443.183V25.7812H446.357C447.626 25.7812 448.739 26.0612 449.696 26.6211C450.66 27.181 451.412 27.9655 451.952 28.9746C452.493 29.9837 452.763 31.1686 452.763 32.5293V33.252C452.763 34.6191 452.493 35.8073 451.952 36.8164C451.412 37.8255 450.654 38.61 449.677 39.1699C448.707 39.7233 447.571 40 446.269 40H443.241ZM444.648 40H442.128V25.7812H444.648V40ZM460.448 40.1953C459.399 40.1953 458.495 39.9707 457.733 39.5215C456.971 39.0658 456.385 38.4538 455.975 37.6855C455.565 36.9108 455.36 36.0449 455.36 35.0879V34.6875C455.36 33.5872 455.568 32.6302 455.985 31.8164C456.401 30.9961 456.971 30.3613 457.694 29.9121C458.423 29.4629 459.246 29.2383 460.164 29.2383C461.18 29.2383 462.023 29.4596 462.694 29.9023C463.364 30.3385 463.866 30.9473 464.198 31.7285C464.53 32.5033 464.696 33.4017 464.696 34.4238V35.4688H456.522V33.7207H462.303V33.5352C462.29 33.125 462.212 32.7409 462.069 32.3828C461.926 32.0247 461.698 31.735 461.385 31.5137C461.079 31.2923 460.669 31.1816 460.155 31.1816C459.64 31.1816 459.207 31.3281 458.856 31.6211C458.504 31.9076 458.237 32.3145 458.055 32.8418C457.873 33.3626 457.782 33.9779 457.782 34.6875V35.0879C457.782 35.6868 457.892 36.224 458.114 36.6992C458.335 37.1745 458.657 37.5521 459.08 37.832C459.504 38.1055 460.008 38.2422 460.594 38.2422C461.161 38.2422 461.662 38.1315 462.098 37.9102C462.541 37.6888 462.922 37.3698 463.241 36.9531L464.51 38.2227C464.178 38.724 463.677 39.1797 463.006 39.5898C462.342 39.9935 461.489 40.1953 460.448 40.1953ZM473.211 37.1191C473.211 36.8978 473.152 36.696 473.035 36.5137C472.924 36.3314 472.706 36.1621 472.38 36.0059C472.055 35.8496 471.576 35.7064 470.945 35.5762C470.196 35.4199 469.535 35.2116 468.962 34.9512C468.396 34.6908 467.953 34.3555 467.634 33.9453C467.322 33.5352 467.166 33.0339 467.166 32.4414C467.166 31.8685 467.328 31.3411 467.654 30.8594C467.986 30.3711 468.458 29.9805 469.07 29.6875C469.688 29.388 470.418 29.2383 471.257 29.2383C472.143 29.2383 472.905 29.388 473.543 29.6875C474.181 29.9805 474.669 30.3809 475.007 30.8887C475.352 31.39 475.525 31.9596 475.525 32.5977H473.103C473.103 32.181 472.947 31.8164 472.634 31.5039C472.328 31.1849 471.866 31.0254 471.248 31.0254C470.864 31.0254 470.541 31.0872 470.281 31.2109C470.027 31.3346 469.835 31.4941 469.705 31.6895C469.581 31.8848 469.519 32.0996 469.519 32.334C469.519 32.5618 469.581 32.7604 469.705 32.9297C469.835 33.099 470.053 33.2487 470.359 33.3789C470.671 33.5091 471.108 33.6328 471.668 33.75C472.475 33.9193 473.171 34.1341 473.757 34.3945C474.343 34.6484 474.793 34.987 475.105 35.4102C475.424 35.8268 475.584 36.3574 475.584 37.002C475.584 37.6204 475.405 38.1706 475.046 38.6523C474.695 39.1341 474.197 39.5117 473.552 39.7852C472.914 40.0586 472.159 40.1953 471.287 40.1953C470.317 40.1953 469.5 40.0228 468.836 39.6777C468.171 39.3327 467.667 38.8932 467.322 38.3594C466.983 37.819 466.814 37.2591 466.814 36.6797H469.148C469.174 37.0964 469.291 37.4316 469.5 37.6855C469.714 37.9395 469.981 38.125 470.3 38.2422C470.626 38.3529 470.964 38.4082 471.316 38.4082C471.733 38.4082 472.078 38.3529 472.351 38.2422C472.631 38.1315 472.843 37.9818 472.986 37.793C473.136 37.5977 473.211 37.373 473.211 37.1191ZM481.003 40H478.581V29.4336H481.003V40ZM478.425 26.6699C478.425 26.2988 478.545 25.9928 478.786 25.752C479.027 25.5046 479.362 25.3809 479.792 25.3809C480.221 25.3809 480.56 25.5046 480.807 25.752C481.055 25.9928 481.179 26.2988 481.179 26.6699C481.179 27.0345 481.055 27.3405 480.807 27.5879C480.56 27.8288 480.221 27.9492 479.792 27.9492C479.362 27.9492 479.027 27.8288 478.786 27.5879C478.545 27.3405 478.425 27.0345 478.425 26.6699ZM493.316 29.4336V39.6973C493.316 40.6478 493.111 41.4551 492.701 42.1191C492.291 42.7897 491.721 43.2975 490.992 43.6426C490.27 43.9876 489.43 44.1602 488.473 44.1602C488.069 44.1602 487.62 44.1016 487.125 43.9844C486.637 43.8737 486.161 43.6914 485.699 43.4375C485.237 43.1836 484.85 42.8516 484.537 42.4414L485.67 40.9766C486.048 41.4128 486.461 41.735 486.91 41.9434C487.366 42.1582 487.844 42.2656 488.346 42.2656C489.133 42.2656 489.752 42.0475 490.201 41.6113C490.657 41.1751 490.885 40.5501 490.885 39.7363V31.8359L491.109 29.4336H493.316ZM483.941 34.6289C483.941 33.5612 484.111 32.6237 484.449 31.8164C484.794 31.0026 485.283 30.3711 485.914 29.9219C486.552 29.4661 487.307 29.2383 488.18 29.2383C488.87 29.2383 489.459 29.3652 489.947 29.6191C490.436 29.8665 490.839 30.2246 491.158 30.6934C491.484 31.1556 491.738 31.709 491.92 32.3535C492.109 32.9915 492.249 33.6979 492.34 34.4727V35.0391C492.223 36.0417 492.005 36.9303 491.686 37.7051C491.367 38.4798 490.917 39.0885 490.338 39.5312C489.765 39.974 489.039 40.1953 488.16 40.1953C487.301 40.1953 486.555 39.9642 485.924 39.502C485.292 39.0332 484.804 38.3952 484.459 37.5879C484.114 36.7806 483.941 35.8626 483.941 34.834V34.6289ZM486.363 34.834C486.363 35.459 486.448 36.0286 486.617 36.543C486.786 37.0508 487.047 37.4577 487.398 37.7637C487.757 38.0632 488.215 38.2129 488.775 38.2129C489.322 38.2129 489.768 38.099 490.113 37.8711C490.458 37.6367 490.725 37.321 490.914 36.9238C491.109 36.5267 491.243 36.0807 491.314 35.5859V33.9355C491.275 33.5449 491.197 33.1836 491.08 32.8516C490.969 32.5195 490.81 32.2331 490.602 31.9922C490.4 31.7513 490.149 31.5625 489.85 31.4258C489.55 31.2891 489.199 31.2207 488.795 31.2207C488.235 31.2207 487.776 31.3737 487.418 31.6797C487.06 31.9792 486.793 32.3893 486.617 32.9102C486.448 33.4245 486.363 33.9974 486.363 34.6289V34.834ZM498.902 40H496.48V29.4336H498.755L498.902 31.6895V40ZM497.691 34.3457C497.697 33.3236 497.876 32.4316 498.228 31.6699C498.579 30.9017 499.071 30.306 499.702 29.8828C500.334 29.4531 501.07 29.2383 501.909 29.2383C502.593 29.2383 503.185 29.3685 503.687 29.6289C504.188 29.8828 504.579 30.2995 504.859 30.8789C505.139 31.4518 505.279 32.2233 505.279 33.1934V40H502.847V33.1738C502.847 32.6855 502.775 32.2982 502.632 32.0117C502.495 31.7253 502.287 31.5234 502.007 31.4062C501.734 31.2826 501.398 31.2207 501.001 31.2207C500.598 31.2207 500.239 31.3021 499.927 31.4648C499.621 31.6211 499.357 31.8424 499.136 32.1289C498.921 32.4154 498.755 32.7474 498.638 33.125C498.527 33.5026 498.472 33.9062 498.472 34.3359L497.691 34.3457ZM513.139 40.1953C512.091 40.1953 511.186 39.9707 510.424 39.5215C509.663 39.0658 509.077 38.4538 508.666 37.6855C508.256 36.9108 508.051 36.0449 508.051 35.0879V34.6875C508.051 33.5872 508.26 32.6302 508.676 31.8164C509.093 30.9961 509.663 30.3613 510.385 29.9121C511.114 29.4629 511.938 29.2383 512.856 29.2383C513.871 29.2383 514.715 29.4596 515.385 29.9023C516.056 30.3385 516.557 30.9473 516.889 31.7285C517.221 32.5033 517.387 33.4017 517.387 34.4238V35.4688H509.213V33.7207H514.995V33.5352C514.982 33.125 514.903 32.7409 514.76 32.3828C514.617 32.0247 514.389 31.735 514.077 31.5137C513.771 31.2923 513.36 31.1816 512.846 31.1816C512.332 31.1816 511.899 31.3281 511.547 31.6211C511.196 31.9076 510.929 32.3145 510.746 32.8418C510.564 33.3626 510.473 33.9779 510.473 34.6875V35.0879C510.473 35.6868 510.584 36.224 510.805 36.6992C511.026 37.1745 511.349 37.5521 511.772 37.832C512.195 38.1055 512.7 38.2422 513.286 38.2422C513.852 38.2422 514.353 38.1315 514.789 37.9102C515.232 37.6888 515.613 37.3698 515.932 36.9531L517.202 38.2227C516.87 38.724 516.368 39.1797 515.698 39.5898C515.034 39.9935 514.181 40.1953 513.139 40.1953ZM522.425 40H520.004V29.4336H522.308L522.425 31.5039V40ZM525.609 31.6602C525.459 31.6341 525.3 31.6146 525.13 31.6016C524.968 31.5885 524.805 31.582 524.642 31.582C524.108 31.582 523.662 31.6797 523.304 31.875C522.953 32.0638 522.686 32.3372 522.504 32.6953C522.321 33.0469 522.214 33.4635 522.181 33.9453L521.625 33.9551C521.625 33.0632 521.742 32.2624 521.976 31.5527C522.211 30.8431 522.562 30.2799 523.031 29.8633C523.5 29.4466 524.086 29.2383 524.789 29.2383C524.925 29.2383 525.078 29.2513 525.248 29.2773C525.417 29.3034 525.544 29.3327 525.629 29.3652L525.609 31.6602Z" fill="#BCBCBC"/>
<path d="M297.385 61.7812V71.2539C297.385 72.3411 297.147 73.2526 296.672 73.9883C296.203 74.7174 295.565 75.2676 294.758 75.6387C293.951 76.0098 293.049 76.1953 292.053 76.1953C291.031 76.1953 290.116 76.0098 289.309 75.6387C288.508 75.2676 287.876 74.7174 287.414 73.9883C286.958 73.2526 286.73 72.3411 286.73 71.2539V61.7812H289.24V71.2539C289.24 71.9245 289.354 72.4746 289.582 72.9043C289.81 73.334 290.135 73.653 290.559 73.8613C290.982 74.0697 291.48 74.1738 292.053 74.1738C292.639 74.1738 293.14 74.0697 293.557 73.8613C293.973 73.653 294.296 73.334 294.523 72.9043C294.751 72.4746 294.865 71.9245 294.865 71.2539V61.7812H297.385ZM306.486 73.1191C306.486 72.8978 306.427 72.696 306.31 72.5137C306.199 72.3314 305.981 72.1621 305.655 72.0059C305.33 71.8496 304.851 71.7064 304.22 71.5762C303.471 71.4199 302.81 71.2116 302.238 70.9512C301.671 70.6908 301.228 70.3555 300.909 69.9453C300.597 69.5352 300.441 69.0339 300.441 68.4414C300.441 67.8685 300.603 67.3411 300.929 66.8594C301.261 66.3711 301.733 65.9805 302.345 65.6875C302.963 65.388 303.693 65.2383 304.532 65.2383C305.418 65.2383 306.18 65.388 306.818 65.6875C307.456 65.9805 307.944 66.3809 308.282 66.8887C308.627 67.39 308.8 67.9596 308.8 68.5977H306.378C306.378 68.181 306.222 67.8164 305.909 67.5039C305.603 67.1849 305.141 67.0254 304.523 67.0254C304.139 67.0254 303.816 67.0872 303.556 67.2109C303.302 67.3346 303.11 67.4941 302.98 67.6895C302.856 67.8848 302.794 68.0996 302.794 68.334C302.794 68.5618 302.856 68.7604 302.98 68.9297C303.11 69.099 303.328 69.2487 303.634 69.3789C303.946 69.5091 304.383 69.6328 304.943 69.75C305.75 69.9193 306.446 70.1341 307.032 70.3945C307.618 70.6484 308.068 70.987 308.38 71.4102C308.699 71.8268 308.859 72.3574 308.859 73.002C308.859 73.6204 308.68 74.1706 308.321 74.6523C307.97 75.1341 307.472 75.5117 306.827 75.7852C306.189 76.0586 305.434 76.1953 304.562 76.1953C303.592 76.1953 302.775 76.0228 302.111 75.6777C301.446 75.3327 300.942 74.8932 300.597 74.3594C300.258 73.819 300.089 73.2591 300.089 72.6797H302.423C302.449 73.0964 302.566 73.4316 302.775 73.6855C302.989 73.9395 303.256 74.125 303.575 74.2422C303.901 74.3529 304.239 74.4082 304.591 74.4082C305.008 74.4082 305.353 74.3529 305.626 74.2422C305.906 74.1315 306.118 73.9818 306.261 73.793C306.411 73.5977 306.486 73.373 306.486 73.1191ZM316.377 76.1953C315.329 76.1953 314.424 75.9707 313.663 75.5215C312.901 75.0658 312.315 74.4538 311.905 73.6855C311.495 72.9108 311.289 72.0449 311.289 71.0879V70.6875C311.289 69.5872 311.498 68.6302 311.914 67.8164C312.331 66.9961 312.901 66.3613 313.623 65.9121C314.353 65.4629 315.176 65.2383 316.094 65.2383C317.11 65.2383 317.953 65.4596 318.623 65.9023C319.294 66.3385 319.795 66.9473 320.127 67.7285C320.459 68.5033 320.625 69.4017 320.625 70.4238V71.4688H312.452V69.7207H318.233V69.5352C318.22 69.125 318.142 68.7409 317.998 68.3828C317.855 68.0247 317.627 67.735 317.315 67.5137C317.009 67.2923 316.599 67.1816 316.084 67.1816C315.57 67.1816 315.137 67.3281 314.786 67.6211C314.434 67.9076 314.167 68.3145 313.985 68.8418C313.802 69.3626 313.711 69.9779 313.711 70.6875V71.0879C313.711 71.6868 313.822 72.224 314.043 72.6992C314.265 73.1745 314.587 73.5521 315.01 73.832C315.433 74.1055 315.938 74.2422 316.524 74.2422C317.09 74.2422 317.592 74.1315 318.028 73.9102C318.47 73.6888 318.851 73.3698 319.17 72.9531L320.44 74.2227C320.108 74.724 319.607 75.1797 318.936 75.5898C318.272 75.9935 317.419 76.1953 316.377 76.1953ZM325.664 76H323.242V65.4336H325.546L325.664 67.5039V76ZM328.847 67.6602C328.698 67.6341 328.538 67.6146 328.369 67.6016C328.206 67.5885 328.043 67.582 327.88 67.582C327.347 67.582 326.901 67.6797 326.543 67.875C326.191 68.0638 325.924 68.3372 325.742 68.6953C325.56 69.0469 325.452 69.4635 325.42 69.9453L324.863 69.9551C324.863 69.0632 324.98 68.2624 325.214 67.5527C325.449 66.8431 325.8 66.2799 326.269 65.8633C326.738 65.4466 327.324 65.2383 328.027 65.2383C328.164 65.2383 328.317 65.2513 328.486 65.2773C328.655 65.3034 328.782 65.3327 328.867 65.3652L328.847 67.6602ZM339.812 76H337.303V61.7812H339.812V76ZM345.788 76H343.366V65.4336H345.642L345.788 67.6895V76ZM344.577 70.3457C344.584 69.3236 344.763 68.4316 345.114 67.6699C345.466 66.9017 345.958 66.306 346.589 65.8828C347.221 65.4531 347.956 65.2383 348.796 65.2383C349.48 65.2383 350.072 65.3685 350.573 65.6289C351.075 65.8828 351.465 66.2995 351.745 66.8789C352.025 67.4518 352.165 68.2233 352.165 69.1934V76H349.734V69.1738C349.734 68.6855 349.662 68.2982 349.519 68.0117C349.382 67.7253 349.174 67.5234 348.894 67.4062C348.62 67.2826 348.285 67.2207 347.888 67.2207C347.484 67.2207 347.126 67.3021 346.814 67.4648C346.508 67.6211 346.244 67.8424 346.023 68.1289C345.808 68.4154 345.642 68.7474 345.525 69.125C345.414 69.5026 345.359 69.9062 345.359 70.3359L344.577 70.3457ZM360.241 67.2207H354.245V65.4336H360.241V67.2207ZM358.366 62.8457V73.0215C358.366 73.347 358.411 73.5944 358.502 73.7637C358.593 73.9264 358.724 74.0371 358.893 74.0957C359.062 74.1543 359.258 74.1836 359.479 74.1836C359.642 74.1836 359.798 74.1738 359.948 74.1543C360.097 74.1348 360.218 74.1152 360.309 74.0957V75.9609C360.114 76.026 359.886 76.0814 359.625 76.127C359.371 76.1725 359.072 76.1953 358.727 76.1953C358.187 76.1953 357.705 76.0977 357.282 75.9023C356.865 75.707 356.536 75.3913 356.295 74.9551C356.061 74.5124 355.944 73.9264 355.944 73.1973V62.8457H358.366ZM367.505 76.1953C366.457 76.1953 365.552 75.9707 364.791 75.5215C364.029 75.0658 363.443 74.4538 363.033 73.6855C362.623 72.9108 362.418 72.0449 362.418 71.0879V70.6875C362.418 69.5872 362.626 68.6302 363.043 67.8164C363.459 66.9961 364.029 66.3613 364.752 65.9121C365.481 65.4629 366.304 65.2383 367.222 65.2383C368.238 65.2383 369.081 65.4596 369.752 65.9023C370.422 66.3385 370.923 66.9473 371.255 67.7285C371.588 68.5033 371.754 69.4017 371.754 70.4238V71.4688H363.58V69.7207H369.361V69.5352C369.348 69.125 369.27 68.7409 369.127 68.3828C368.983 68.0247 368.755 67.735 368.443 67.5137C368.137 67.2923 367.727 67.1816 367.213 67.1816C366.698 67.1816 366.265 67.3281 365.914 67.6211C365.562 67.9076 365.295 68.3145 365.113 68.8418C364.931 69.3626 364.839 69.9779 364.839 70.6875V71.0879C364.839 71.6868 364.95 72.224 365.171 72.6992C365.393 73.1745 365.715 73.5521 366.138 73.832C366.561 74.1055 367.066 74.2422 367.652 74.2422C368.218 74.2422 368.72 74.1315 369.156 73.9102C369.599 73.6888 369.979 73.3698 370.298 72.9531L371.568 74.2227C371.236 74.724 370.735 75.1797 370.064 75.5898C369.4 75.9935 368.547 76.1953 367.505 76.1953ZM376.792 76H374.37V65.4336H376.675L376.792 67.5039V76ZM379.975 67.6602C379.826 67.6341 379.666 67.6146 379.497 67.6016C379.334 67.5885 379.171 67.582 379.009 67.582C378.475 67.582 378.029 67.6797 377.671 67.875C377.319 68.0638 377.052 68.3372 376.87 68.6953C376.688 69.0469 376.58 69.4635 376.548 69.9453L375.991 69.9551C375.991 69.0632 376.108 68.2624 376.343 67.5527C376.577 66.8431 376.929 66.2799 377.397 65.8633C377.866 65.4466 378.452 65.2383 379.155 65.2383C379.292 65.2383 379.445 65.2513 379.614 65.2773C379.783 65.3034 379.91 65.3327 379.995 65.3652L379.975 67.6602ZM385.004 76H382.484V61.7812H385.004V76ZM390.746 69.9941H384.379V67.9727H390.746V69.9941ZM391.566 63.8125H384.379V61.7812H391.566V63.8125ZM399.456 68.8613C399.456 68.3145 399.303 67.8783 398.997 67.5527C398.698 67.2272 398.242 67.0645 397.63 67.0645C397.265 67.0645 396.946 67.1296 396.673 67.2598C396.4 67.3835 396.188 67.5527 396.038 67.7676C395.889 67.9824 395.814 68.2266 395.814 68.5H393.392C393.392 67.9336 393.571 67.403 393.929 66.9082C394.287 66.4069 394.792 66.0033 395.443 65.6973C396.1 65.3913 396.875 65.2383 397.767 65.2383C398.561 65.2383 399.267 65.3717 399.886 65.6387C400.504 65.9056 400.989 66.3092 401.341 66.8496C401.699 67.39 401.878 68.0671 401.878 68.8809V73.5391C401.878 74.0339 401.914 74.4701 401.986 74.8477C402.057 75.2253 402.158 75.554 402.288 75.834V76H399.808C399.697 75.7461 399.609 75.4173 399.544 75.0137C399.486 74.61 399.456 74.2161 399.456 73.832V68.8613ZM399.827 71.0586H398.167C397.308 71.0586 396.66 71.2181 396.224 71.5371C395.794 71.8496 395.579 72.276 395.579 72.8164C395.579 73.2331 395.723 73.5814 396.009 73.8613C396.295 74.1348 396.699 74.2715 397.22 74.2715C397.695 74.2715 398.109 74.1771 398.46 73.9883C398.818 73.793 399.098 73.5553 399.3 73.2754C399.502 72.9889 399.606 72.722 399.613 72.4746L400.384 73.5586C400.306 73.8255 400.172 74.112 399.984 74.418C399.801 74.7174 399.557 75.0039 399.251 75.2773C398.952 75.5443 398.594 75.7656 398.177 75.9414C397.767 76.1107 397.288 76.1953 396.741 76.1953C396.051 76.1953 395.436 76.0586 394.896 75.7852C394.355 75.5117 393.929 75.1374 393.616 74.6621C393.31 74.1803 393.157 73.64 393.157 73.041C393.157 71.9212 393.577 71.0618 394.417 70.4629C395.257 69.8639 396.448 69.5645 397.991 69.5645H399.808L399.827 71.0586ZM409.465 74.252C409.843 74.252 410.185 74.1771 410.491 74.0273C410.797 73.8711 411.041 73.6595 411.223 73.3926C411.405 73.1257 411.506 72.8197 411.526 72.4746H413.811C413.791 73.1712 413.586 73.7995 413.196 74.3594C412.805 74.9193 412.287 75.3652 411.643 75.6973C410.998 76.0293 410.279 76.1953 409.485 76.1953C408.411 76.1953 407.515 75.9577 406.799 75.4824C406.09 75.0007 405.559 74.3594 405.207 73.5586C404.856 72.7513 404.68 71.8594 404.68 70.8828V70.5508C404.68 69.5742 404.856 68.6855 405.207 67.8848C405.559 67.0775 406.09 66.4362 406.799 65.9609C407.515 65.4792 408.411 65.2383 409.485 65.2383C410.338 65.2383 411.083 65.4076 411.721 65.7461C412.366 66.0781 412.87 66.5436 413.235 67.1426C413.599 67.7415 413.791 68.4414 413.811 69.2422H411.526C411.506 68.8646 411.412 68.5195 411.243 68.207C411.08 67.8945 410.845 67.6471 410.539 67.4648C410.24 67.276 409.879 67.1816 409.455 67.1816C408.83 67.1816 408.345 67.3444 408 67.6699C407.662 67.9954 407.427 68.4154 407.297 68.9297C407.167 69.444 407.102 69.9844 407.102 70.5508V70.8828C407.102 71.4557 407.164 71.9993 407.287 72.5137C407.418 73.028 407.655 73.4479 408 73.7734C408.345 74.0924 408.834 74.252 409.465 74.252ZM421.076 76.1953C420.028 76.1953 419.123 75.9707 418.361 75.5215C417.599 75.0658 417.013 74.4538 416.603 73.6855C416.193 72.9108 415.988 72.0449 415.988 71.0879V70.6875C415.988 69.5872 416.196 68.6302 416.613 67.8164C417.03 66.9961 417.599 66.3613 418.322 65.9121C419.051 65.4629 419.875 65.2383 420.793 65.2383C421.808 65.2383 422.651 65.4596 423.322 65.9023C423.992 66.3385 424.494 66.9473 424.826 67.7285C425.158 68.5033 425.324 69.4017 425.324 70.4238V71.4688H417.15V69.7207H422.931V69.5352C422.918 69.125 422.84 68.7409 422.697 68.3828C422.554 68.0247 422.326 67.735 422.013 67.5137C421.707 67.2923 421.297 67.1816 420.783 67.1816C420.268 67.1816 419.836 67.3281 419.484 67.6211C419.132 67.9076 418.865 68.3145 418.683 68.8418C418.501 69.3626 418.41 69.9779 418.41 70.6875V71.0879C418.41 71.6868 418.52 72.224 418.742 72.6992C418.963 73.1745 419.285 73.5521 419.709 73.832C420.132 74.1055 420.636 74.2422 421.222 74.2422C421.789 74.2422 422.29 74.1315 422.726 73.9102C423.169 73.6888 423.55 73.3698 423.869 72.9531L425.138 74.2227C424.806 74.724 424.305 75.1797 423.634 75.5898C422.97 75.9935 422.117 76.1953 421.076 76.1953ZM435.059 76L435.078 73.9785H438.086C438.958 73.9785 439.688 73.7897 440.273 73.4121C440.859 73.0345 441.302 72.4941 441.602 71.791C441.901 71.0814 442.051 70.235 442.051 69.252V68.5098C442.051 67.5007 441.901 66.6478 441.602 65.9512C441.309 65.2546 440.872 64.724 440.293 64.3594C439.714 63.9948 439.007 63.8125 438.174 63.8125H435V61.7812H438.174C439.443 61.7812 440.557 62.0612 441.514 62.6211C442.477 63.181 443.229 63.9655 443.77 64.9746C444.31 65.9837 444.58 67.1686 444.58 68.5293V69.252C444.58 70.6191 444.31 71.8073 443.77 72.8164C443.229 73.8255 442.471 74.61 441.494 75.1699C440.524 75.7233 439.388 76 438.086 76H435.059ZM436.465 76H433.945V61.7812H436.465V76ZM452.265 76.1953C451.217 76.1953 450.312 75.9707 449.55 75.5215C448.788 75.0658 448.202 74.4538 447.792 73.6855C447.382 72.9108 447.177 72.0449 447.177 71.0879V70.6875C447.177 69.5872 447.385 68.6302 447.802 67.8164C448.219 66.9961 448.788 66.3613 449.511 65.9121C450.24 65.4629 451.064 65.2383 451.982 65.2383C452.997 65.2383 453.84 65.4596 454.511 65.9023C455.182 66.3385 455.683 66.9473 456.015 67.7285C456.347 68.5033 456.513 69.4017 456.513 70.4238V71.4688H448.339V69.7207H454.12V69.5352C454.107 69.125 454.029 68.7409 453.886 68.3828C453.743 68.0247 453.515 67.735 453.202 67.5137C452.896 67.2923 452.486 67.1816 451.972 67.1816C451.458 67.1816 451.025 67.3281 450.673 67.6211C450.321 67.9076 450.055 68.3145 449.872 68.8418C449.69 69.3626 449.599 69.9779 449.599 70.6875V71.0879C449.599 71.6868 449.71 72.224 449.931 72.6992C450.152 73.1745 450.474 73.5521 450.898 73.832C451.321 74.1055 451.825 74.2422 452.411 74.2422C452.978 74.2422 453.479 74.1315 453.915 73.9102C454.358 73.6888 454.739 73.3698 455.058 72.9531L456.327 74.2227C455.995 74.724 455.494 75.1797 454.823 75.5898C454.159 75.9935 453.307 76.1953 452.265 76.1953ZM465.028 73.1191C465.028 72.8978 464.969 72.696 464.852 72.5137C464.741 72.3314 464.523 72.1621 464.198 72.0059C463.872 71.8496 463.394 71.7064 462.762 71.5762C462.013 71.4199 461.353 71.2116 460.78 70.9512C460.213 70.6908 459.771 70.3555 459.452 69.9453C459.139 69.5352 458.983 69.0339 458.983 68.4414C458.983 67.8685 459.146 67.3411 459.471 66.8594C459.803 66.3711 460.275 65.9805 460.887 65.6875C461.506 65.388 462.235 65.2383 463.075 65.2383C463.96 65.2383 464.722 65.388 465.36 65.6875C465.998 65.9805 466.486 66.3809 466.825 66.8887C467.17 67.39 467.342 67.9596 467.342 68.5977H464.92C464.92 68.181 464.764 67.8164 464.452 67.5039C464.146 67.1849 463.683 67.0254 463.065 67.0254C462.681 67.0254 462.358 67.0872 462.098 67.2109C461.844 67.3346 461.652 67.4941 461.522 67.6895C461.398 67.8848 461.336 68.0996 461.336 68.334C461.336 68.5618 461.398 68.7604 461.522 68.9297C461.652 69.099 461.87 69.2487 462.176 69.3789C462.489 69.5091 462.925 69.6328 463.485 69.75C464.292 69.9193 464.989 70.1341 465.575 70.3945C466.161 70.6484 466.61 70.987 466.922 71.4102C467.241 71.8268 467.401 72.3574 467.401 73.002C467.401 73.6204 467.222 74.1706 466.864 74.6523C466.512 75.1341 466.014 75.5117 465.37 75.7852C464.732 76.0586 463.976 76.1953 463.104 76.1953C462.134 76.1953 461.317 76.0228 460.653 75.6777C459.989 75.3327 459.484 74.8932 459.139 74.3594C458.801 73.819 458.631 73.2591 458.631 72.6797H460.965C460.991 73.0964 461.108 73.4316 461.317 73.6855C461.532 73.9395 461.799 74.125 462.118 74.2422C462.443 74.3529 462.782 74.4082 463.133 74.4082C463.55 74.4082 463.895 74.3529 464.168 74.2422C464.448 74.1315 464.66 73.9818 464.803 73.793C464.953 73.5977 465.028 73.373 465.028 73.1191ZM472.82 76H470.398V65.4336H472.82V76ZM470.242 62.6699C470.242 62.2988 470.362 61.9928 470.603 61.752C470.844 61.5046 471.179 61.3809 471.609 61.3809C472.039 61.3809 472.377 61.5046 472.625 61.752C472.872 61.9928 472.996 62.2988 472.996 62.6699C472.996 63.0345 472.872 63.3405 472.625 63.5879C472.377 63.8288 472.039 63.9492 471.609 63.9492C471.179 63.9492 470.844 63.8288 470.603 63.5879C470.362 63.3405 470.242 63.0345 470.242 62.6699ZM485.134 65.4336V75.6973C485.134 76.6478 484.929 77.4551 484.518 78.1191C484.108 78.7897 483.539 79.2975 482.809 79.6426C482.087 79.9876 481.247 80.1602 480.29 80.1602C479.886 80.1602 479.437 80.1016 478.942 79.9844C478.454 79.8737 477.979 79.6914 477.516 79.4375C477.054 79.1836 476.667 78.8516 476.354 78.4414L477.487 76.9766C477.865 77.4128 478.278 77.735 478.727 77.9434C479.183 78.1582 479.662 78.2656 480.163 78.2656C480.951 78.2656 481.569 78.0475 482.018 77.6113C482.474 77.1751 482.702 76.5501 482.702 75.7363V67.8359L482.927 65.4336H485.134ZM475.759 70.6289C475.759 69.5612 475.928 68.6237 476.266 67.8164C476.611 67.0026 477.1 66.3711 477.731 65.9219C478.369 65.4661 479.124 65.2383 479.997 65.2383C480.687 65.2383 481.276 65.3652 481.764 65.6191C482.253 65.8665 482.656 66.2246 482.975 66.6934C483.301 67.1556 483.555 67.709 483.737 68.3535C483.926 68.9915 484.066 69.6979 484.157 70.4727V71.0391C484.04 72.0417 483.822 72.9303 483.503 73.7051C483.184 74.4798 482.735 75.0885 482.155 75.5312C481.582 75.974 480.856 76.1953 479.977 76.1953C479.118 76.1953 478.373 75.9642 477.741 75.502C477.11 75.0332 476.621 74.3952 476.276 73.5879C475.931 72.7806 475.759 71.8626 475.759 70.834V70.6289ZM478.18 70.834C478.18 71.459 478.265 72.0286 478.434 72.543C478.604 73.0508 478.864 73.4577 479.216 73.7637C479.574 74.0632 480.033 74.2129 480.593 74.2129C481.139 74.2129 481.585 74.099 481.93 73.8711C482.276 73.6367 482.542 73.321 482.731 72.9238C482.927 72.5267 483.06 72.0807 483.132 71.5859V69.9355C483.093 69.5449 483.014 69.1836 482.897 68.8516C482.787 68.5195 482.627 68.2331 482.419 67.9922C482.217 67.7513 481.966 67.5625 481.667 67.4258C481.367 67.2891 481.016 67.2207 480.612 67.2207C480.052 67.2207 479.593 67.3737 479.235 67.6797C478.877 67.9792 478.61 68.3893 478.434 68.9102C478.265 69.4245 478.18 69.9974 478.18 70.6289V70.834ZM490.719 76H488.297V65.4336H490.572L490.719 67.6895V76ZM489.508 70.3457C489.514 69.3236 489.693 68.4316 490.045 67.6699C490.396 66.9017 490.888 66.306 491.52 65.8828C492.151 65.4531 492.887 65.2383 493.727 65.2383C494.41 65.2383 495.003 65.3685 495.504 65.6289C496.005 65.8828 496.396 66.2995 496.676 66.8789C496.956 67.4518 497.096 68.2233 497.096 69.1934V76H494.664V69.1738C494.664 68.6855 494.592 68.2982 494.449 68.0117C494.312 67.7253 494.104 67.5234 493.824 67.4062C493.551 67.2826 493.215 67.2207 492.818 67.2207C492.415 67.2207 492.057 67.3021 491.744 67.4648C491.438 67.6211 491.174 67.8424 490.953 68.1289C490.738 68.4154 490.572 68.7474 490.455 69.125C490.344 69.5026 490.289 69.9062 490.289 70.3359L489.508 70.3457ZM504.956 76.1953C503.908 76.1953 503.003 75.9707 502.241 75.5215C501.48 75.0658 500.894 74.4538 500.484 73.6855C500.073 72.9108 499.868 72.0449 499.868 71.0879V70.6875C499.868 69.5872 500.077 68.6302 500.493 67.8164C500.91 66.9961 501.48 66.3613 502.202 65.9121C502.932 65.4629 503.755 65.2383 504.673 65.2383C505.689 65.2383 506.532 65.4596 507.202 65.9023C507.873 66.3385 508.374 66.9473 508.706 67.7285C509.038 68.5033 509.204 69.4017 509.204 70.4238V71.4688H501.03V69.7207H506.812V69.5352C506.799 69.125 506.721 68.7409 506.577 68.3828C506.434 68.0247 506.206 67.735 505.894 67.5137C505.588 67.2923 505.178 67.1816 504.663 67.1816C504.149 67.1816 503.716 67.3281 503.364 67.6211C503.013 67.9076 502.746 68.3145 502.564 68.8418C502.381 69.3626 502.29 69.9779 502.29 70.6875V71.0879C502.29 71.6868 502.401 72.224 502.622 72.6992C502.844 73.1745 503.166 73.5521 503.589 73.832C504.012 74.1055 504.517 74.2422 505.103 74.2422C505.669 74.2422 506.17 74.1315 506.607 73.9102C507.049 73.6888 507.43 73.3698 507.749 72.9531L509.019 74.2227C508.687 74.724 508.185 75.1797 507.515 75.5898C506.851 75.9935 505.998 76.1953 504.956 76.1953ZM514.243 76H511.821V65.4336H514.125L514.243 67.5039V76ZM517.426 67.6602C517.276 67.6341 517.117 67.6146 516.948 67.6016C516.785 67.5885 516.622 67.582 516.459 67.582C515.926 67.582 515.48 67.6797 515.121 67.875C514.77 68.0638 514.503 68.3372 514.321 68.6953C514.138 69.0469 514.031 69.4635 513.998 69.9453L513.442 69.9551C513.442 69.0632 513.559 68.2624 513.793 67.5527C514.028 66.8431 514.379 66.2799 514.848 65.8633C515.317 65.4466 515.903 65.2383 516.606 65.2383C516.743 65.2383 516.896 65.2513 517.065 65.2773C517.234 65.3034 517.361 65.3327 517.446 65.3652L517.426 67.6602Z" fill="#BCBCBC"/>
<path d="M289 112C282.701 121.718 281.869 133.599 272.621 141.475C250.198 160.569 212.669 157.536 187.242 151.748C152.978 143.947 120.629 128.896 86.8784 119.105C72.0214 114.795 55.0499 109.396 40.5298 117.761C11.9455 134.227 2.29252 170.73 2.02214 203.208C1.78094 232.181 3.59032 261.014 3.59032 290" stroke="#B7B7B7" stroke-width="3" stroke-linecap="round" stroke-dasharray="18 18"/>
</svg>
