<svg width="430" height="202" viewBox="0 0 430 202" fill="none" xmlns="http://www.w3.org/2000/svg">
<path d="M377.687 199.74C377.68 200.568 378.346 201.245 379.174 201.252L392.674 201.366C393.502 201.373 394.179 200.707 394.186 199.879C394.193 199.05 393.527 198.373 392.699 198.366L380.699 198.265L380.8 186.265C380.807 185.437 380.142 184.76 379.313 184.753C378.485 184.746 377.808 185.412 377.801 186.24L377.687 199.74ZM402.644 181.958L401.725 180.772L402.644 181.958ZM422 159L423.376 159.598L423.414 159.51L423.441 159.417L422 159ZM427.5 114L429 113.976L427.5 114ZM366 29L366.713 27.6804L366 29ZM200.091 18.7438L200.785 20.0736L200.091 18.7438ZM161.341 51.7955L162.63 52.5616L161.341 51.7955ZM157.524 74.8755L156.227 75.6288L157.524 74.8755ZM184.497 65.4837L183.046 65.8608L184.497 65.4837ZM124.382 47.5614L124.446 49.06L124.382 47.5614ZM27.8011 79.6068L26.8412 78.4541L27.8011 79.6068ZM0.724286 144.975C0.70827 145.803 1.36673 146.488 2.19501 146.504C3.02328 146.52 3.70771 145.861 3.72373 145.033L0.724286 144.975ZM4.16176 136.077C4.22793 135.251 3.61214 134.528 2.78636 134.462C1.96058 134.396 1.23752 135.012 1.17135 135.838L4.16176 136.077ZM3.96488 117.721C3.77255 118.526 4.26986 119.336 5.07565 119.528C5.88144 119.72 6.69058 119.223 6.88291 118.417L3.96488 117.721ZM12.7296 101.644C13.0883 100.897 12.7738 100.001 12.0271 99.6422C11.2804 99.2835 10.3842 99.598 10.0255 100.345L12.7296 101.644ZM20.182 84.9135C19.6327 85.5336 19.6899 86.4816 20.31 87.031C20.93 87.5804 21.8781 87.5231 22.4275 86.903L20.182 84.9135ZM35.508 75.5023C36.178 75.015 36.326 74.0768 35.8386 73.4069C35.3513 72.737 34.4131 72.589 33.7432 73.0763L35.508 75.5023ZM48.551 63.7781C47.8207 64.1692 47.5458 65.0783 47.9369 65.8086C48.328 66.5388 49.237 66.8138 49.9673 66.4227L48.551 63.7781ZM65.5368 59.4082C66.3132 59.1191 66.7083 58.2555 66.4192 57.4791C66.1302 56.7027 65.2665 56.3077 64.4901 56.5967L65.5368 59.4082ZM81.2028 51.5264C80.3973 51.7202 79.9015 52.5302 80.0952 53.3357C80.289 54.1411 81.099 54.637 81.9045 54.4432L81.2028 51.5264ZM98.7538 51.2812C99.5742 51.1662 100.146 50.4079 100.031 49.5875C99.9161 48.7671 99.1578 48.1953 98.3374 48.3103L98.7538 51.2812ZM115.643 46.5423C114.817 46.5991 114.193 47.3152 114.25 48.1416C114.307 48.9681 115.023 49.592 115.849 49.5352L115.643 46.5423ZM132.672 48.8204C133.501 48.817 134.169 48.1426 134.166 47.3141C134.162 46.4857 133.488 45.817 132.66 45.8205L132.672 48.8204ZM149.416 46.5664C148.592 46.4849 147.857 47.0871 147.776 47.9115C147.694 48.7359 148.296 49.4703 149.121 49.5519L149.416 46.5664ZM165.199 52.4156C165.996 52.6415 166.825 52.1785 167.051 51.3815C167.277 50.5844 166.814 49.7552 166.017 49.5293L165.199 52.4156ZM181.305 57.3777C180.71 56.8019 179.76 56.8179 179.184 57.4134C178.609 58.009 178.625 58.9586 179.22 59.5344L181.305 57.3777ZM180.449 72.1733C179.833 72.7277 179.784 73.6762 180.338 74.2917C180.893 74.9073 181.841 74.9568 182.457 74.4023L180.449 72.1733ZM164.967 80.2356C165.794 80.2945 166.511 79.6723 166.57 78.846C166.629 78.0197 166.007 77.3021 165.18 77.2432L164.967 80.2356ZM157.742 69.0444C157.746 68.216 157.078 67.541 156.25 67.5367C155.421 67.5324 154.746 68.2005 154.742 69.0289L157.742 69.0444ZM157.378 56.733C157.083 57.5073 157.472 58.3738 158.246 58.6685C159.02 58.9633 159.887 58.5745 160.181 57.8003L157.378 56.733ZM170.143 42.4793C170.699 41.8656 170.653 40.917 170.039 40.3605C169.426 39.804 168.477 39.8504 167.921 40.4641L170.143 42.4793ZM188.108 23.8963C187.409 24.3405 187.202 25.2674 187.646 25.9667C188.09 26.666 189.017 26.8729 189.716 26.4287L188.108 23.8963ZM208.498 16.3423C209.254 16.0045 209.594 15.1174 209.256 14.361C208.918 13.6046 208.031 13.2652 207.275 13.603L208.498 16.3423ZM223.643 7.46551C222.851 7.70847 222.406 8.54747 222.649 9.33947C222.892 10.1315 223.731 10.5766 224.523 10.3336L223.643 7.46551ZM241.162 6.30588C241.977 6.15911 242.519 5.37918 242.372 4.56386C242.226 3.74854 241.446 3.20657 240.63 3.35334L241.162 6.30588ZM257.975 1.24965C257.149 1.303 256.522 2.01642 256.575 2.84313C256.628 3.66984 257.342 4.29677 258.168 4.24343L257.975 1.24965ZM275.311 4.05886C276.138 4.09326 276.837 3.45014 276.872 2.62243C276.906 1.79472 276.263 1.09584 275.435 1.06145L275.311 4.05886ZM292.814 2.64818C291.993 2.53323 291.235 3.10511 291.12 3.92553C291.005 4.74594 291.577 5.5042 292.397 5.61916L292.814 2.64818ZM309.277 8.77301C310.083 8.96103 310.89 8.45939 311.078 7.65258C311.266 6.84577 310.764 6.03931 309.957 5.85129L309.277 8.77301ZM326.752 10.5142C325.963 10.2602 325.118 10.6935 324.864 11.482C324.61 12.2706 325.044 13.1157 325.832 13.3697L326.752 10.5142ZM341.979 19.2719C342.745 19.5857 343.621 19.2185 343.935 18.4518C344.249 17.6851 343.881 16.8092 343.115 16.4954L341.979 19.2719ZM358.982 23.674C358.24 23.3058 357.34 23.6088 356.972 24.3509C356.604 25.093 356.907 25.9931 357.649 26.3613L358.982 23.674ZM373.315 34.8216C374.031 35.2394 374.949 34.9981 375.367 34.2827C375.785 33.5674 375.544 32.6488 374.828 32.231L373.315 34.8216ZM390.473 42.3839C389.804 41.8949 388.866 42.0405 388.377 42.7092C387.888 43.3779 388.034 44.3164 388.702 44.8055L390.473 42.3839ZM402.582 56.6495C403.164 57.239 404.114 57.2449 404.703 56.6629C405.293 56.0808 405.299 55.131 404.717 54.5416L402.582 56.6495ZM416.455 69.2151C416.013 68.5144 415.087 68.3046 414.386 68.7465C413.685 69.1885 413.476 70.1148 413.918 70.8155L416.455 69.2151ZM421.664 87.1725C421.926 87.9584 422.775 88.3828 423.561 88.1206C424.347 87.8583 424.771 87.0087 424.509 86.2228L421.664 87.1725ZM428.436 104.597C428.349 103.773 427.61 103.177 426.786 103.264C425.962 103.352 425.366 104.091 425.453 104.915L428.436 104.597ZM426.014 125.355C425.995 126.183 426.65 126.87 427.479 126.889C428.307 126.909 428.994 126.253 429.013 125.425L426.014 125.355ZM426.302 148.29C426.48 147.48 425.968 146.681 425.158 146.503C424.349 146.325 423.549 146.837 423.372 147.647L426.302 148.29ZM417.227 164.961C416.792 165.666 417.011 166.59 417.716 167.025C418.421 167.46 419.345 167.241 419.78 166.536L417.227 164.961ZM409.543 178.314C410.169 177.771 410.237 176.824 409.695 176.198C409.153 175.571 408.206 175.503 407.579 176.046L409.543 178.314ZM395.832 185.071C395.153 185.546 394.988 186.481 395.462 187.16C395.937 187.839 396.872 188.004 397.551 187.53L395.832 185.071ZM385.658 196.073C386.307 195.558 386.416 194.615 385.901 193.966C385.386 193.317 384.443 193.208 383.794 193.722L385.658 196.073ZM3.72373 145.033C3.78157 142.042 3.92348 139.051 4.16176 136.077L1.17135 135.838C0.927863 138.876 0.78321 141.928 0.724286 144.975L3.72373 145.033ZM6.88291 118.417C8.28197 112.556 10.196 106.918 12.7296 101.644L10.0255 100.345C7.38632 105.838 5.4061 111.682 3.96488 117.721L6.88291 118.417ZM22.4275 86.903C24.3548 84.7278 26.4614 82.6743 28.7609 80.7595L26.8412 78.4541C24.423 80.4677 22.2078 82.6271 20.182 84.9135L22.4275 86.903ZM28.7609 80.7595C30.9917 78.902 33.2408 77.1517 35.508 75.5023L33.7432 73.0763C31.4226 74.7645 29.1219 76.555 26.8412 78.4541L28.7609 80.7595ZM49.9673 66.4227C55.07 63.69 60.2603 61.3726 65.5368 59.4082L64.4901 56.5967C59.0929 58.6061 53.7785 60.9785 48.551 63.7781L49.9673 66.4227ZM81.9045 54.4432C87.4325 53.1134 93.0494 52.0809 98.7538 51.2812L98.3374 48.3103C92.5497 49.1216 86.8367 50.1712 81.2028 51.5264L81.9045 54.4432ZM115.849 49.5352C118.695 49.3396 121.561 49.1836 124.446 49.06L124.318 46.0628C121.409 46.1874 118.518 46.3447 115.643 46.5423L115.849 49.5352ZM124.446 49.06C124.611 49.053 127.8 48.8409 132.672 48.8204L132.66 45.8205C130.184 45.8309 128.13 45.8901 126.675 45.9476C125.297 46.0021 124.277 46.0645 124.318 46.0628L124.446 49.06ZM149.121 49.5519C154.518 50.0855 160.116 50.9751 165.199 52.4156L166.017 49.5293C160.707 48.0244 154.921 47.1108 149.416 46.5664L149.121 49.5519ZM179.22 59.5344C181.1 61.3523 182.417 63.4418 183.046 65.8608L185.949 65.1067C185.162 62.0748 183.519 59.5179 181.305 57.3777L179.22 59.5344ZM183.046 65.8608C183.6 67.9965 182.678 70.1655 180.449 72.1733L182.457 74.4023C185.126 71.9985 186.897 68.7562 185.949 65.1067L183.046 65.8608ZM165.18 77.2432C162.106 77.0241 159.88 75.9453 158.822 74.1223L156.227 75.6288C157.998 78.6783 161.419 79.9827 164.967 80.2356L165.18 77.2432ZM158.822 74.1223C158.081 72.8467 157.731 71.1141 157.742 69.0444L154.742 69.0289C154.73 71.3889 155.118 73.7178 156.227 75.6288L158.822 74.1223ZM160.181 57.8003C160.994 55.6649 161.88 53.8252 162.63 52.5616L160.051 51.0294C159.194 52.4725 158.237 54.4744 157.378 56.733L160.181 57.8003ZM162.63 52.5616C164.777 48.9487 167.318 45.5943 170.143 42.4793L167.921 40.4641C164.978 43.7091 162.312 47.2236 160.051 51.0294L162.63 52.5616ZM189.716 26.4287C193.407 24.0846 197.144 21.9741 200.785 20.0736L199.397 17.4141C195.695 19.3461 191.883 21.4985 188.108 23.8963L189.716 26.4287ZM200.785 20.0736C203.336 18.7421 205.908 17.499 208.498 16.3423L207.275 13.603C204.629 14.7846 202.002 16.0542 199.397 17.4141L200.785 20.0736ZM224.523 10.3336C230.013 8.64932 235.566 7.31325 241.162 6.30588L240.63 3.35334C234.92 4.38138 229.251 5.74532 223.643 7.46551L224.523 10.3336ZM258.168 4.24343C263.864 3.8759 269.584 3.82092 275.311 4.05886L275.435 1.06145C269.607 0.819269 263.78 0.875051 257.975 1.24965L258.168 4.24343ZM292.397 5.61916C298.043 6.41029 303.676 7.46791 309.277 8.77301L309.957 5.85129C304.273 4.52661 298.552 3.45225 292.814 2.64818L292.397 5.61916ZM325.832 13.3697C331.27 15.1213 336.658 17.0949 341.979 19.2719L343.115 16.4954C337.726 14.2902 332.265 12.2901 326.752 10.5142L325.832 13.3697ZM357.649 26.3613C360.217 27.6358 362.764 28.956 365.287 30.3196L366.713 27.6804C364.16 26.3004 361.582 24.9642 358.982 23.674L357.649 26.3613ZM365.287 30.3196C368.004 31.7879 370.684 33.285 373.315 34.8216L374.828 32.231C372.164 30.6751 369.454 29.1617 366.713 27.6804L365.287 30.3196ZM388.702 44.8055C393.697 48.4586 398.361 52.3747 402.582 56.6495L404.717 54.5416C400.363 50.1333 395.574 46.1141 390.473 42.3839L388.702 44.8055ZM413.918 70.8155C417.059 75.7956 419.676 81.217 421.664 87.1725L424.509 86.2228C422.443 80.0322 419.721 74.3929 416.455 69.2151L413.918 70.8155ZM425.453 104.915C425.765 107.839 425.95 110.873 426 114.024L429 113.976C428.948 110.739 428.758 107.614 428.436 104.597L425.453 104.915ZM426 114.024C426.066 118.115 426.097 121.804 426.014 125.355L429.013 125.425C429.098 121.812 429.065 118.075 429 113.976L426 114.024ZM423.372 147.647C422.64 150.981 421.718 154.58 420.559 158.583L423.441 159.417C424.615 155.361 425.554 151.698 426.302 148.29L423.372 147.647ZM420.625 158.402C419.554 160.863 418.422 163.024 417.227 164.961L419.78 166.536C421.055 164.47 422.252 162.182 423.376 159.598L420.625 158.402ZM407.579 176.046C405.743 177.636 403.798 179.165 401.725 180.772L403.563 183.144C405.64 181.534 407.64 179.961 409.543 178.314L407.579 176.046ZM401.725 180.772C399.817 182.251 397.843 183.665 395.832 185.071L397.551 187.53C399.577 186.113 401.598 184.666 403.563 183.144L401.725 180.772ZM383.794 193.722C381.844 195.268 379.943 196.905 378.135 198.683L380.239 200.822C381.954 199.135 383.771 197.569 385.658 196.073L383.794 193.722Z" fill="#B7B7B7"/>
</svg>
