<svg width="231" height="324" viewBox="0 0 231 324" fill="none" xmlns="http://www.w3.org/2000/svg">
<path d="M229.25 2C225.25 11.5 226.25 9 222.75 16C216.75 25.5 212.46 34.6009 204.662 41.8574C185.694 59.5082 158.852 67.3474 133.791 70.8258C115.421 73.3753 93.1572 75.4297 88.4308 52.8248C86.0415 41.398 92.1674 23.6903 106.253 32.1416C122.146 41.6777 121.639 69.4886 119.962 85.31C117.652 107.113 106.179 124.081 89.8613 138.359C62.7295 162.099 24.2038 173.143 8.14181 207.561C-4.83989 235.379 4.6432 263.159 25.0698 284.274C45.8977 305.804 61.1139 311.513 88.4308 322" stroke="#B7B7B7" stroke-width="3" stroke-linecap="round" stroke-dasharray="18 18"/>
</svg>
